HIERARCHY
ROOT Hips
{
	OFFSET 0.000000 89.005402 0.000000
	CHANNELS 6 Xposition Yposition Zposition Xrotation Yrotation Zrotation
	JOINT Spine
	{
		OFFSET 0.116900 10.681000 0.373400
		CHANNELS 3 Xrotation Yrotation Zrotation
		JOINT Spine1
		{
			OFFSET 0.000000 13.840401 0.053500
			CHANNELS 3 Xrotation Yrotation Zrotation
			JOINT Spine2
			{
				OFFSET 0.000000 14.712700 -0.366200
				CHANNELS 3 Xrotation Yrotation Zrotation
				JOINT Neck
				{
					OFFSET 0.000000 35.415497 -3.314200
					CHANNELS 3 Xrotation Yrotation Zrotation
					JOINT Head
					{
						OFFSET 0.000000 16.899200 1.218300
						CHANNELS 3 Xrotation Yrotation Zrotation
						JOINT HeadTop_End
						{
							OFFSET 0.000000 22.206207 2.192500
							CHANNELS 3 Xrotation Yrotation Zrotation
							End Site
							{
								OFFSET 0.000000 22.314178 0.000000
							}
						}
					}
				}
				JOINT LeftShoulder
				{
					OFFSET 12.896400 26.716293 -4.548400
					CHANNELS 3 Xrotation Yrotation Zrotation
					JOINT LeftArm
					{
						OFFSET 19.027000 -4.857010 -1.718400
						CHANNELS 3 Xrotation Yrotation Zrotation
						JOINT LeftForeArm
						{
							OFFSET 24.179897 0.000000 0.000000
							CHANNELS 3 Xrotation Yrotation Zrotation
							JOINT LeftHand
							{
								OFFSET 27.156403 0.000000 0.000000
								CHANNELS 3 Xrotation Yrotation Zrotation
								JOINT LeftHandIndex1
								{
									OFFSET 16.441200 0.000000 0.000000
									CHANNELS 3 Xrotation Yrotation Zrotation
									JOINT LeftHandIndex2
									{
										OFFSET 4.821899 0.000000 0.000000
										CHANNELS 3 Xrotation Yrotation Zrotation
										JOINT LeftHandIndex3
										{
											OFFSET 6.386497 0.000000 0.000000
											CHANNELS 3 Xrotation Yrotation Zrotation
											JOINT LeftHandIndex4
											{
												OFFSET 5.188988 0.000000 0.000000
												CHANNELS 3 Xrotation Yrotation Zrotation
												End Site
												{
													OFFSET -0.178703 5.185913 0.000177
												}
											}
										}
									}
								}
								JOINT LeftHandThumb1
								{
									OFFSET 6.534897 -5.032593 5.900300
									CHANNELS 3 Xrotation Yrotation Zrotation
									JOINT LeftHandThumb2
									{
										OFFSET 3.818176 -2.204422 2.204423
										CHANNELS 3 Xrotation Yrotation Zrotation
										JOINT LeftHandThumb3
										{
											OFFSET 3.252098 -1.877594 1.877601
											CHANNELS 3 Xrotation Yrotation Zrotation
											JOINT LeftHandThumb4
											{
												OFFSET 5.251778 -3.032120 3.032117
												CHANNELS 3 Xrotation Yrotation Zrotation
												End Site
												{
													OFFSET 0.000023 6.780014 0.000000
												}
											}
										}
									}
								}
							}
						}
					}
				}
				JOINT RightShoulder
				{
					OFFSET -12.896300 26.716293 -4.548400
					CHANNELS 3 Xrotation Yrotation Zrotation
					JOINT RightArm
					{
						OFFSET -19.027000 -4.857010 -1.718400
						CHANNELS 3 Xrotation Yrotation Zrotation
						JOINT RightForeArm
						{
							OFFSET -24.179897 0.000000 0.000000
							CHANNELS 3 Xrotation Yrotation Zrotation
							JOINT RightHand
							{
								OFFSET -27.156403 0.000000 0.000000
								CHANNELS 3 Xrotation Yrotation Zrotation
								JOINT RightHandThumb1
								{
									OFFSET -6.591202 -4.852203 5.988100
									CHANNELS 3 Xrotation Yrotation Zrotation
									JOINT RightHandThumb2
									{
										OFFSET -3.818176 -2.204422 2.204423
										CHANNELS 3 Xrotation Yrotation Zrotation
										JOINT RightHandThumb3
										{
											OFFSET -3.252098 -1.877594 1.877601
											CHANNELS 3 Xrotation Yrotation Zrotation
											JOINT RightHandThumb4
											{
												OFFSET -5.251778 -3.032120 3.032117
												CHANNELS 3 Xrotation Yrotation Zrotation
												End Site
												{
													OFFSET -0.000023 6.780014 0.000000
												}
											}
										}
									}
								}
								JOINT RightHandIndex1
								{
									OFFSET -16.029404 0.000000 0.000000
									CHANNELS 3 Xrotation Yrotation Zrotation
									JOINT RightHandIndex2
									{
										OFFSET -5.213303 0.000000 0.000000
										CHANNELS 3 Xrotation Yrotation Zrotation
										JOINT RightHandIndex3
										{
											OFFSET -6.386528 0.000000 0.000000
											CHANNELS 3 Xrotation Yrotation Zrotation
											JOINT RightHandIndex4
											{
												OFFSET -5.189026 0.000000 0.000000
												CHANNELS 3 Xrotation Yrotation Zrotation
												End Site
												{
													OFFSET 0.236702 5.183624 0.001972
												}
											}
										}
									}
								}
							}
						}
					}
				}
			}
		}
	}
	JOINT LeftUpLeg
	{
		OFFSET 14.073000 -7.904099 -1.463000
		CHANNELS 3 Xrotation Yrotation Zrotation
		JOINT LeftLeg
		{
			OFFSET -0.109806 -34.073280 4.093200
			CHANNELS 3 Xrotation Yrotation Zrotation
			JOINT LeftFoot
			{
				OFFSET 0.109806 -29.899420 -6.319000
				CHANNELS 3 Xrotation Yrotation Zrotation
				JOINT LeftToeBase
				{
					OFFSET 1.551100 -14.988700 20.535801
					CHANNELS 3 Xrotation Yrotation Zrotation
					JOINT LeftToe_End
					{
						OFFSET 0.221200 0.570800 13.248301
						CHANNELS 3 Xrotation Yrotation Zrotation
						End Site
						{
							OFFSET 0.000000 13.262435 0.000000
						}
					}
				}
			}
		}
	}
	JOINT RightUpLeg
	{
		OFFSET -13.839300 -7.904099 -1.463000
		CHANNELS 3 Xrotation Yrotation Zrotation
		JOINT RightLeg
		{
			OFFSET 0.109694 -34.073219 4.093300
			CHANNELS 3 Xrotation Yrotation Zrotation
			JOINT RightFoot
			{
				OFFSET -0.109694 -29.899384 -6.319200
				CHANNELS 3 Xrotation Yrotation Zrotation
				JOINT RightToeBase
				{
					OFFSET -1.551100 -14.988700 20.535801
					CHANNELS 3 Xrotation Yrotation Zrotation
					JOINT RightToe_End
					{
						OFFSET -0.221200 0.570900 13.248299
						CHANNELS 3 Xrotation Yrotation Zrotation
						End Site
						{
							OFFSET 0.000000 13.262440 0.000000
						}
					}
				}
			}
		}
	}
}
MOTION
Frames: 8
Frame Time: 0.033333
2.867777 71.308945 8.910031 -2.647490 -53.451920 -11.814693 5.441902 -3.371217 3.503093 1.985833 -1.327136 0.090594 1.954555 -1.379850 0.092478 0.920682 3.521391 1.177464 18.221871 20.307725 -22.768185 -0.000002 0.000001 -0.000001 -1.190355 5.377174 12.880868 -37.170760 -37.493599 -10.418712 0.000012 -36.278837 0.000017 -14.826775 9.563191 80.871113 0.515417 -3.002999 13.058350 10.250107 6.003565 -119.372049 6.916841 6.881115 -90.297348 0.000002 -0.000000 -0.000000 -0.005967 -6.735453 14.842042 -6.220500 30.403351 -6.087004 18.107185 67.043224 3.186295 -0.000001 -0.000001 0.000000 2.160974 5.900087 -2.446958 -10.895691 49.599949 65.782658 -0.000035 116.044818 0.000022 14.619948 11.759666 -25.832187 -4.120703 -4.493536 0.621513 23.841578 -29.749825 5.835316 36.126353 -53.497798 18.680897 0.000000 -0.000002 -0.000001 3.511266 -6.049294 57.910230 10.350210 -6.061985 119.375546 9.118078 -6.602325 108.238841 -0.000001 0.000001 0.000003 -31.039194 -15.154474 32.431186 62.757028 -0.192532 0.893696 -21.487669 7.231424 -26.131583 -3.767373 -0.000007 -0.000001 0.000000 0.000003 0.000000 -3.769263 -1.646495 -18.890167 32.127332 -3.952776 -9.394875 -18.588107 -9.847405 35.974869 -5.956188 0.000004 0.000009 0.000000 -0.000000 -0.000000 
2.609264 71.571823 10.185879 -1.538570 -45.507402 -10.646581 3.768204 -0.767222 3.138785 1.568512 -0.341619 0.120010 1.560931 -0.379882 0.119627 1.421192 2.388922 1.435669 19.409714 15.007355 -19.643110 -0.000002 0.000001 0.000000 -1.071871 5.222297 11.654834 -42.551802 -40.538289 -27.367448 -0.000023 -55.544632 -0.000017 -11.511942 9.003136 76.840919 0.515427 -3.002984 13.058350 10.250105 6.003562 -119.372063 6.916825 6.881104 -90.297368 0.000002 0.000000 -0.000001 -0.005963 -6.735445 14.842034 -6.220525 30.403351 -6.087001 18.107205 67.043224 3.186296 0.000001 -0.000000 0.000002 2.395345 6.787096 -0.784061 -12.545985 43.733394 60.362070 -0.000000 117.160762 -0.000001 16.290792 10.258154 -27.365527 -7.512748 -0.812140 -1.080136 22.776019 -29.151729 5.238610 36.126363 -53.497795 18.680897 0.000001 -0.000002 0.000002 0.827342 -3.566921 41.286325 10.350207 -6.061987 119.375546 9.118081 -6.602324 108.238834 0.000000 -0.000003 0.000002 -34.122566 -19.153759 27.521791 62.718417 -1.882010 0.900788 -20.594658 6.474855 -23.758673 -4.142964 0.000001 0.000001 0.000000 -0.000003 -0.000000 3.156668 -8.829240 -19.897683 26.268006 -5.488366 -7.380058 -17.800578 -10.287507 36.471591 -5.482326 0.000014 -0.000004 -0.000000 -0.000000 0.000000 
2.318970 71.617844 11.214878 0.623090 -34.788988 -8.516388 2.233057 2.374403 2.027549 1.201944 0.821978 -0.012229 1.215378 0.799014 -0.007070 1.564509 0.965049 1.857185 17.521051 8.720141 -14.000223 0.000001 -0.000001 -0.000001 -0.864063 5.107292 9.002057 -40.651035 -44.050359 -38.797650 -0.000013 -75.782411 -0.000007 -9.378336 8.652965 63.631982 0.515442 -3.002983 13.058323 10.250106 6.003562 -119.372063 6.916832 6.881101 -90.297396 -0.000000 0.000000 0.000001 -0.005966 -6.735445 14.842016 -6.220521 30.403344 -6.086992 18.107199 67.043224 3.186295 0.000000 -0.000003 0.000001 2.678271 7.953118 -0.135293 -19.413611 37.477726 50.670250 0.000003 112.577644 -0.000014 14.017576 6.687229 -37.327052 -10.752506 3.229931 -2.758836 21.694211 -28.519163 4.628620 36.126363 -53.497798 18.680890 -0.000001 0.000003 0.000003 -0.646867 -0.057996 24.381470 10.350208 -6.061983 119.375546 9.118075 -6.602324 108.238841 -0.000001 -0.000004 0.000001 -40.873126 -22.125397 20.300663 62.034073 -5.252083 1.724371 -17.956009 5.325573 -20.701605 -4.631918 -0.000001 -0.000011 -0.000000 -0.000002 -0.000000 12.714277 -16.553349 -18.297959 17.444062 -6.174139 -4.447079 -15.811799 -14.389358 36.691298 -4.209296 -0.000001 -0.000004 -0.000000 0.000003 0.000000 
2.136527 71.259521 12.037376 3.013583 -23.523679 -6.031028 1.869401 6.524573 0.162252 1.124914 2.335230 -0.149745 1.139963 2.327724 -0.132512 0.652008 -0.586555 2.140805 14.271546 1.306040 -8.094610 0.000002 -0.000000 -0.000000 -0.690397 5.410190 5.710197 -32.629019 -48.237675 -43.857683 0.001106 -91.582209 0.001194 -8.387496 5.270001 50.050240 0.515451 -3.002980 13.058315 10.250109 6.003563 -119.372063 6.916809 6.881112 -90.297348 0.000001 -0.000000 0.000000 -0.005956 -6.735437 14.842023 -6.220528 30.403344 -6.086977 18.107211 67.043231 3.186302 -0.000000 -0.000001 0.000001 2.780662 8.380007 -2.279794 -30.023312 32.557548 40.522184 -0.000178 99.501349 0.000169 8.972877 0.258927 -53.412120 -13.497511 7.145303 -4.238515 20.716037 -27.924177 4.073433 36.126363 -53.497798 18.680892 0.000003 -0.000004 -0.000005 -0.619681 3.535340 8.958427 10.350208 -6.061982 119.375546 9.118075 -6.602325 108.238841 0.000001 -0.000002 -0.000001 -49.420039 -22.010507 11.568864 61.123008 -9.824177 3.245086 -14.359803 4.145964 -17.463704 -5.084558 0.000013 0.000001 0.000000 -0.000002 -0.000000 19.296907 -19.972783 -14.223276 16.114962 -7.496478 -2.256668 -17.189233 -22.987849 32.414131 -4.835855 -0.000029 -0.000018 0.000000 0.000000 -0.000000 
1.966286 70.368172 12.495175 4.947210 -14.222833 -3.004569 3.166259 12.842551 -2.514963 1.210891 4.643289 -0.202868 1.167005 4.656561 -0.192800 -0.997352 -2.332189 2.025764 11.700083 -7.766315 -2.296109 -0.000001 -0.000000 -0.000000 -0.253256 4.525325 1.474635 -20.217217 -53.806130 -41.467233 0.000228 -97.690529 0.000210 -6.750655 -2.170030 37.759693 0.515440 -3.002982 13.058327 10.250109 6.003565 -119.372063 6.916799 6.881113 -90.297334 0.000002 -0.000002 -0.000002 -0.005963 -6.735441 14.842022 -6.220531 30.403347 -6.086999 18.107195 67.043224 3.186296 -0.000003 0.000001 0.000002 2.529460 7.468437 -7.039998 -37.974513 27.967478 31.310045 -0.000125 80.516804 0.000105 5.234975 -8.451804 -66.894224 -15.506905 10.358648 -5.369055 19.955461 -27.445809 3.639305 36.126353 -53.497798 18.680897 -0.000000 -0.000000 0.000002 0.380775 6.294058 -3.235811 10.350209 -6.061984 119.375546 9.118078 -6.602327 108.238841 0.000001 -0.000002 0.000000 -56.664656 -19.787833 3.984760 59.769312 -9.225012 4.151281 -10.796632 -1.666426 -16.454288 -5.063620 -0.000004 0.000006 0.000000 -0.000000 -0.000000 23.731137 -20.463937 -11.069712 15.974306 -8.129292 -1.172405 -19.643943 -32.066167 30.026208 -4.940286 -0.000010 0.000001 0.000000 -0.000002 -0.000000 
1.798000 69.471375 12.978244 6.529505 -7.592735 0.260895 5.407569 19.925074 -5.741538 1.129830 7.295528 -0.426422 0.964665 7.321578 -0.496998 -2.253114 -4.276630 2.137876 12.042698 -17.188951 3.470846 0.000003 -0.000000 0.000000 0.342408 2.081890 -2.273548 -5.361781 -59.475361 -33.505862 0.000504 -98.345763 0.000542 -9.688844 -6.665751 23.136931 0.515451 -3.002975 13.058339 10.250106 6.003565 -119.372063 6.916816 6.881106 -90.297368 -0.000003 0.000001 -0.000000 -0.005963 -6.735441 14.842025 -6.220510 30.403344 -6.086998 18.107202 67.043224 3.186299 -0.000002 -0.000003 0.000002 1.923809 5.497011 -11.345007 -41.375042 25.796617 23.562486 0.000002 56.737422 0.000000 6.505839 -11.043394 -71.596946 -16.600804 12.253563 -6.007179 19.522369 -27.167048 3.391108 36.126356 -53.497802 18.680897 0.000001 0.000000 0.000000 1.337038 7.748150 -10.292096 10.350211 -6.061984 119.375546 9.118078 -6.602326 108.238841 0.000000 -0.000001 0.000001 -61.439437 -17.376742 -1.967561 58.367709 -9.001564 3.796014 -8.277565 -4.938253 -15.299648 -5.235727 -0.000040 -0.000004 0.000000 0.000001 0.000000 24.420913 -21.597243 -10.732115 18.773523 -10.126132 -0.844816 -24.731637 -33.760986 26.846250 -6.888414 0.000016 -0.000012 -0.000000 0.000001 0.000000 
1.709526 68.627434 13.462351 7.432379 -3.107335 2.548666 7.356733 24.889756 -8.227135 1.024937 9.194296 -0.817833 0.782858 9.210607 -1.000016 -2.412339 -5.950111 2.894925 16.617468 -23.682742 9.300379 0.000001 -0.000000 0.000000 0.746170 -0.113822 -4.232591 8.552520 -62.946340 -24.710921 0.000160 -100.249050 0.000165 -15.474369 -3.845584 7.576805 0.515440 -3.002993 13.058333 10.250102 6.003562 -119.372063 6.916833 6.881115 -90.297348 -0.000000 0.000003 -0.000003 -0.005977 -6.735468 14.842004 -6.220523 30.403361 -6.086967 18.107202 67.043224 3.186297 -0.000003 -0.000001 0.000002 1.184124 3.204820 -13.687218 -42.461507 31.255338 19.626596 -0.000001 28.775870 -0.000003 7.792016 -0.991657 -72.916791 -16.747941 12.517150 -6.094459 19.462989 -27.128453 3.357042 36.126356 -53.497798 18.680890 -0.000000 0.000000 -0.000001 1.489610 7.937538 -11.267210 10.350209 -6.061985 119.375546 9.118078 -6.602325 108.238841 0.000001 -0.000002 0.000002 -64.502708 -15.762436 -5.853377 57.965022 -8.818654 2.809601 -6.909652 -6.539943 -14.163669 -5.594533 -0.000017 -0.000000 -0.000000 0.000000 0.000000 22.726435 -24.302112 -11.427733 24.118315 -10.969211 -0.778166 -29.190528 -34.240046 23.665009 -7.721204 0.000008 0.000011 -0.000000 -0.000001 0.000000 
1.679408 67.808052 13.635882 6.911924 -1.318135 2.999844 8.083069 26.346992 -8.364074 1.156742 9.730568 -0.876142 0.920396 9.746276 -1.085313 -1.394793 -6.664053 3.814318 22.959811 -24.923497 13.792330 -0.000002 -0.000001 0.000001 0.881565 -0.978068 -4.673259 14.822036 -63.576658 -21.753782 -0.000007 -105.548416 -0.000019 -17.935944 3.214694 0.373182 0.515441 -3.003005 13.058335 10.250107 6.003562 -119.372063 6.916836 6.881113 -90.297368 0.000000 -0.000002 0.000001 -0.005971 -6.735469 14.841999 -6.220518 30.403382 -6.086984 18.107193 67.043224 3.186301 -0.000001 0.000001 0.000000 0.759550 1.916132 -14.569103 -46.887852 39.143934 23.730345 0.000001 11.251095 0.000000 6.020864 9.950354 -73.848524 -16.747947 12.517153 -6.094454 19.462998 -27.128446 3.357057 36.126353 -53.497798 18.680894 -0.000001 -0.000000 0.000001 1.489597 7.937536 -11.267208 10.350210 -6.061985 119.375546 9.118078 -6.602325 108.238841 0.000000 0.000000 0.000003 -65.637011 -14.228515 -6.683688 59.553662 -8.560355 2.397138 -6.871597 -7.957807 -13.163561 -5.910228 0.000005 0.000002 0.000000 -0.000000 -0.000000 22.396373 -25.941588 -11.963678 27.990375 -10.448890 -0.086747 -31.945843 -34.744879 21.835702 -6.806979 -0.000010 0.000006 -0.000000 0.000001 -0.000001 
